<?xml version="1.0" encoding="UTF-8" standalone="no"?>
<svg id="svg2985" xmlns:rdf="http://www.w3.org/1999/02/22-rdf-syntax-ns#" xmlns="http://www.w3.org/2000/svg" height="250" width="250" version="1.1" xmlns:cc="http://creativecommons.org/ns#" xmlns:dc="http://purl.org/dc/elements/1.1/">
<path id="path3003" fill="#999" d="M115.91,223.07c-31.718-5.15-57.801-23.33-73.25-51.07-3.3124-5.947-8.5581-20.201-9.6606-26.25l-0.683-3.75-13.705-0.01c-15.315-0.02-18.204-0.48-18.204-2.88,0-1.9556,44.166-56.59,46.952-58.082,1.0467-0.56019,2.5668-0.76385,3.378-0.45258,1.2724,0.48825,38.83,45.883,45.719,55.259,2.4001,3.2666,2.41,3.3594,0.50836,4.75-1.4621,1.0691-5.4891,1.4183-16.357,1.4183h-14.417l0.6695,2.75c0.36823,1.5125,2.3179,6.125,4.3326,10.25,5.3986,11.053,17.762,23.275,29.215,28.879,11.268,5.5137,20.781,7.4712,33,6.7906,17.114-0.95334,30.713-7.1541,43.121-19.661,12.657-12.758,18.879-27.923,18.879-46.008,0-18.086-6.2228-33.25-18.879-46.008-12.407-12.507-26.007-18.707-43.121-19.661-15.836-0.88216-31.207,3.7678-43.409,13.132-4.861,3.7304-4.9247,3.7473-6.5,1.7307-0.875-1.1201-5.3034-6.7464-9.8409-12.503-4.5375-5.7565-8.2361-10.854-8.2191-11.328,0.11002-3.0666,21.025-15.135,33.229-19.174,46.923-15.529,97.835,5.8651,119.73,50.312,6.8004,13.806,9.0496,22.972,9.7147,39.59,0.59669,14.909-0.73236,24.308-5.2761,37.314-10.621,30.402-37.681,54.766-69.571,62.639-9.2598,2.2861-29.131,3.3666-37.355,2.0311z"/>
</svg>